<svg xmlns="http://www.w3.org/2000/svg" width="12.749" height="12.672" viewBox="0 0 12.749 12.672"><defs><style>.a{fill:#fcc62d;stroke:#f1f1f1;stroke-linejoin:round;stroke-width:2px;}</style></defs><g transform="translate(-125.442 -125.526)"><path class="a" d="M130.3,128.551q.145-.089.3-.17a5.287,5.287,0,0,1,2.272-.615c.075,0,.149,0,.225,0a5.336,5.336,0,0,1,5.336,5.222,5.435,5.435,0,0,1-1.617,3.941,5.192,5.192,0,0,1-3.492,1.5c-.075,0-.151.005-.227.005a5.336,5.336,0,0,1-2.794-9.883Zm0,0" transform="translate(-1.236 -1.235)"/></g></svg>